<svg width="32" height="32" viewBox="0 0 32 32" fill="none" xmlns="http://www.w3.org/2000/svg">
<g clip-path="url(#clip0_715_11270)">
<rect opacity="0.01" width="32" height="32" fill="white"/>
<path d="M27.0894 6.02848C25.0498 5.08958 22.8626 4.39785 20.5759 4.00166C20.5342 3.99402 20.4926 4.01312 20.4712 4.05134C20.1899 4.55326 19.8783 5.20805 19.6601 5.72272C17.2005 5.35329 14.7536 5.35329 12.3444 5.72272C12.1262 5.19661 11.8033 4.55326 11.5208 4.05134C11.4993 4.0144 11.4577 3.99529 11.4161 4.00166C9.13055 4.39658 6.94341 5.08832 4.90258 6.02848C4.88491 6.03612 4.86977 6.04887 4.85972 6.06542C0.711189 12.2834 -0.425267 18.3486 0.13224 24.3386C0.134763 24.3679 0.15116 24.396 0.173864 24.4138C2.91095 26.4304 5.56228 27.6547 8.16437 28.4661C8.20602 28.4789 8.25014 28.4636 8.27664 28.4292C8.89217 27.5859 9.44086 26.6967 9.9113 25.7616C9.93906 25.7068 9.91256 25.6418 9.85582 25.6202C8.98551 25.289 8.1568 24.8851 7.35964 24.4265C7.29659 24.3896 7.29154 24.2991 7.34954 24.2558C7.5173 24.1297 7.68509 23.9985 7.84527 23.866C7.87425 23.8418 7.91464 23.8367 7.94871 23.852C13.1857 26.2508 18.8554 26.2508 24.0306 23.852C24.0647 23.8354 24.1051 23.8405 24.1353 23.8647C24.2955 23.9972 24.4633 24.1297 24.6323 24.2558C24.6903 24.2991 24.6865 24.3896 24.6235 24.4265C23.8263 24.894 22.9976 25.289 22.126 25.6189C22.0693 25.6406 22.044 25.7068 22.0718 25.7616C22.5523 26.6954 23.101 27.5846 23.7052 28.4279C23.7304 28.4636 23.7758 28.4789 23.8175 28.4661C26.4322 27.6547 29.0835 26.4304 31.8206 24.4138C31.8446 24.396 31.8597 24.3692 31.8622 24.3399C32.5294 17.4148 30.7447 11.3994 27.131 6.06669C27.1221 6.04887 27.107 6.03612 27.0894 6.02848ZM10.6934 20.6914C9.11666 20.6914 7.81751 19.2391 7.81751 17.4556C7.81751 15.6721 9.09147 14.2198 10.6934 14.2198C12.3078 14.2198 13.5944 15.6848 13.5692 17.4556C13.5692 19.2391 12.2952 20.6914 10.6934 20.6914ZM21.3263 20.6914C19.7497 20.6914 18.4505 19.2391 18.4505 17.4556C18.4505 15.6721 19.7244 14.2198 21.3263 14.2198C22.9408 14.2198 24.2274 15.6848 24.2022 17.4556C24.2022 19.2391 22.9408 20.6914 21.3263 20.6914Z" fill="#5865F2"/>
</g>
<defs>
<clipPath id="clip0_715_11270">
<rect width="32" height="32" fill="white"/>
</clipPath>
</defs>
</svg>
