<svg width="32" height="32" viewBox="0 0 32 32" fill="none" xmlns="http://www.w3.org/2000/svg">
<rect opacity="0.01" width="32" height="32" fill="white"/>
<path fill-rule="evenodd" clip-rule="evenodd" d="M26.9913 0.208695C26.8511 0.348869 26.7826 1.13617 26.7826 2.6087C26.7826 4.08122 26.8511 4.86852 26.9913 5.0087C27.1318 5.14922 27.9252 5.21739 29.42 5.21739C31.4369 5.21739 31.6563 5.18661 31.82 4.88104C31.919 4.696 32 3.64504 32 2.54557C32 0.960174 31.9435 0.490087 31.7268 0.273217C31.508 0.0546086 31.0282 0 29.3268 0C27.9045 0 27.1308 0.0692169 26.9913 0.208695ZM6.96261 7.11896C6.86365 7.304 6.78261 8.35496 6.78261 9.45444C6.78261 11.0398 6.83913 11.5099 7.05583 11.7268C7.29409 11.9649 8.12035 12 13.4803 12C18.2104 12 19.6642 12.0503 19.7723 12.2174C19.8497 12.337 19.9522 15.2522 20 18.6957L20.087 24.9565L22.4807 25.0049L24.8744 25.0534L25.0623 24.5701C25.1937 24.232 25.2132 21.5537 25.1273 15.6522C25.0511 10.4179 24.9379 7.13496 24.8289 7C24.6923 6.8313 22.6923 6.78261 15.8979 6.78261C7.41983 6.78261 7.13704 6.79322 6.96261 7.11896ZM0.208695 13.7739C0.0519995 13.9306 0 16.1557 0 22.7181C0 30.4275 0.0321738 31.4856 0.273217 31.7268C0.514261 31.9677 1.55304 32 9.0673 32C14.6083 32 17.7057 31.937 17.9245 31.82C18.2313 31.6558 18.2609 31.4357 18.2609 29.3169C18.2609 27.359 18.2176 26.9772 17.9857 26.8882C17.8344 26.8301 14.9936 26.7826 11.6727 26.7826C7.20835 26.7826 5.58035 26.7282 5.42609 26.5739C5.27183 26.4197 5.21739 24.7859 5.21739 20.3016C5.21739 16.4544 5.15165 14.1151 5.03739 13.9016C4.87374 13.596 4.65426 13.5652 2.63739 13.5652C1.14261 13.5652 0.349217 13.6334 0.208695 13.7739Z" fill="#697BFF"/>
</svg>
