<svg width="32" height="32" viewBox="0 0 32 32" fill="none" xmlns="http://www.w3.org/2000/svg">
<rect opacity="0.01" width="32" height="32" fill="white"/>
<path d="M14.2095 20.9141V23.7906H19.8448V25.7086H12.2916V20.9141H6.00032V12.7045H14.2091V15.8505H18.8856V12.7045H27.0952V20.9141H18.8856V17.7685H14.2091V19.9553L14.2095 20.9141ZM15.965 5.03408L24.6842 0L25.643 1.6608L16.479 6.95168H6.00056V5.034L15.965 5.03408ZM21.3418 10.7872L28.5191 6.64328L29.4777 8.30408L25.1774 10.7872H21.3418ZM16.9928 8.8696L26.6008 3.32216L27.5594 4.98296L17.5066 10.7872H6.00024V8.8696H16.9928ZM27.0952 22.832V32H6V22.832H7.91744V30.0826H25.1774V22.832H27.0952ZM12.2912 14.6224H7.91728V18.9961H12.2912V18.4577V14.6224ZM25.1776 14.6224H20.8038V18.9961H25.1776V14.6224Z" fill="black"/>
</svg>
