<svg width="24" height="25" viewBox="0 0 24 25" fill="none" xmlns="http://www.w3.org/2000/svg">
<g clip-path="url(#clip0_2957_48456)">
<path d="M18 16.0371V11.0371C18 7.96711 16.36 5.39711 13.5 4.71711V4.03711C13.5 3.20711 12.82 2.53711 11.99 2.53711C11.16 2.53711 10.5 3.20711 10.5 4.03711V4.71711C7.62998 5.39711 5.99998 7.95711 5.99998 11.0371V16.0371L4.69998 17.3271C4.06998 17.9571 4.50998 19.0371 5.39998 19.0371H18.57C19.46 19.0371 19.91 17.9571 19.28 17.3271L18 16.0371ZM11.99 22.0371C13.09 22.0371 13.99 21.1371 13.99 20.0371H9.98998C9.98998 21.1371 10.88 22.0371 11.99 22.0371ZM6.76998 4.76711C7.18998 4.38711 7.19998 3.73711 6.79998 3.33711C6.41998 2.95711 5.79998 2.94711 5.40998 3.31711C3.69998 4.87711 2.51998 6.99711 2.13998 9.37711C2.04998 9.98711 2.51998 10.5371 3.13998 10.5371C3.61998 10.5371 4.03998 10.1871 4.11998 9.70711C4.41998 7.76711 5.37998 6.03711 6.76998 4.76711ZM18.6 3.31711C18.2 2.94711 17.58 2.95711 17.2 3.33711C16.8 3.73711 16.82 4.37711 17.23 4.75711C18.61 6.02711 19.58 7.75711 19.88 9.69711C19.95 10.1771 20.37 10.5271 20.86 10.5271C21.47 10.5271 21.95 9.97711 21.85 9.36711C21.47 6.99711 20.3 4.88711 18.6 3.31711Z" fill="white"/>
</g>
<defs>
<clipPath id="clip0_2957_48456">
<rect width="24" height="24" fill="white" transform="translate(0 0.0371094)"/>
</clipPath>
</defs>
</svg>
