<svg width="24" height="24" viewBox="0 0 24 24" fill="none" xmlns="http://www.w3.org/2000/svg">
<path d="M10.7071 8.29289C11.0976 8.68342 11.0976 9.31658 10.7071 9.70711C10.3166 10.0976 9.68342 10.0976 9.29289 9.70711L10.7071 8.29289ZM6 5L5.29289 4.29289C5.68342 3.90237 6.31658 3.90237 6.70711 4.29289L6 5ZM2.70711 9.70711C2.31658 10.0976 1.68342 10.0976 1.29289 9.70711C0.902369 9.31658 0.902369 8.68342 1.29289 8.29289L2.70711 9.70711ZM5 5C5 4.44772 5.44772 4 6 4C6.55228 4 7 4.44772 7 5H5ZM7 19C7 19.5523 6.55228 20 6 20C5.44772 20 5 19.5523 5 19H7ZM9.29289 9.70711L5.29289 5.70711L6.70711 4.29289L10.7071 8.29289L9.29289 9.70711ZM6.70711 5.70711L2.70711 9.70711L1.29289 8.29289L5.29289 4.29289L6.70711 5.70711ZM7 5V19H5V5H7Z" fill="black"/>
<path d="M22.7071 8.29289C23.0976 8.68342 23.0976 9.31658 22.7071 9.70711C22.3166 10.0976 21.6834 10.0976 21.2929 9.70711L22.7071 8.29289ZM18 5L17.2929 4.29289C17.6834 3.90237 18.3166 3.90237 18.7071 4.29289L18 5ZM14.7071 9.70711C14.3166 10.0976 13.6834 10.0976 13.2929 9.70711C12.9024 9.31658 12.9024 8.68342 13.2929 8.29289L14.7071 9.70711ZM17 5C17 4.44772 17.4477 4 18 4C18.5523 4 19 4.44772 19 5H17ZM19 19C19 19.5523 18.5523 20 18 20C17.4477 20 17 19.5523 17 19H19ZM21.2929 9.70711L17.2929 5.70711L18.7071 4.29289L22.7071 8.29289L21.2929 9.70711ZM18.7071 5.70711L14.7071 9.70711L13.2929 8.29289L17.2929 4.29289L18.7071 5.70711ZM19 5V19H17V5H19Z" fill="black"/>
</svg>
