<svg width="32" height="32" viewBox="0 0 32 32" fill="none" xmlns="http://www.w3.org/2000/svg">
<rect opacity="0.01" width="32" height="32" fill="white"/>
<path d="M2.19983 14.4166C10.7897 10.6741 16.5177 8.20682 19.3837 7.01475C27.5667 3.61116 29.2671 3.01992 30.3753 3.00019C30.6191 2.9961 31.1641 3.05651 31.5171 3.34298C31.8152 3.58486 31.8973 3.91162 31.9365 4.14095C31.9758 4.37029 32.0246 4.89272 31.9858 5.30093C31.5423 9.96019 29.6236 21.267 28.6474 26.4854C28.2344 28.6936 27.4211 29.4339 26.6337 29.5064C24.9226 29.6638 23.6232 28.3755 21.9659 27.2891C19.3725 25.5891 17.9074 24.5309 15.3901 22.872C12.4808 20.9549 14.3668 19.9012 16.0247 18.1792C16.4586 17.7285 23.9979 10.8709 24.1439 10.2488C24.1621 10.171 24.1791 9.88101 24.0068 9.72787C23.8345 9.57474 23.5802 9.62711 23.3967 9.66875C23.1366 9.72779 18.9936 12.4661 10.9678 17.8838C9.79181 18.6913 8.72666 19.0848 7.77232 19.0641C6.72023 19.0414 4.69644 18.4693 3.19196 17.9802C1.34666 17.3804 -0.119957 17.0632 0.0077523 16.0445C0.074271 15.5139 0.804965 14.9713 2.19983 14.4166Z" fill="#0088CC"/>
</svg>
