<?xml version="1.0" encoding="UTF-8"?><svg xmlns="http://www.w3.org/2000/svg" viewBox="0 0 316.19 400"><defs><style>.d{fill:#fff;}</style></defs><g id="a"/><g id="b"><g id="c"><path class="d" d="M308.88,78.88L164.63,1.64c-4.08-2.19-8.98-2.19-13.06,0L7.31,78.88c-4.5,2.41-7.31,7.1-7.31,12.2v169.35c0,4.8,2.48,9.25,6.56,11.77l206.88,127.8-.75-61.03c0-.66,.04-1.32,.12-1.96l-59.44-36.65c-2.48,2.22-5.63,3.74-9.18,4.2-9.35,1.21-17.92-5.38-19.14-14.74-1.21-9.35,5.38-17.92,14.74-19.14,9.35-1.21,17.92,5.38,19.14,14.74,.3,2.3,.12,4.54-.45,6.65l58.93,36.34c.6-.52,1.23-1.02,1.92-1.44l33.91-20.6-111.27-68.62c-2.48,2.22-5.63,3.74-9.18,4.2-9.35,1.21-17.92-5.38-19.14-14.74-1.21-9.35,5.38-17.92,14.74-19.14,9.35-1.21,17.92,5.38,19.14,14.74,.3,2.3,.12,4.54-.45,6.65l115.5,71.23,37.65-22.87-81.34-50.16c-2.48,2.22-5.63,3.74-9.17,4.2-9.35,1.21-17.92-5.38-19.14-14.74-1.21-9.35,5.38-17.92,14.74-19.14,9.35-1.21,17.92,5.38,19.14,14.74,.3,2.3,.12,4.54-.45,6.65l85.57,52.77c4.1-2.52,6.6-6.98,6.6-11.79V91.08c0-5.1-2.81-9.79-7.31-12.2Zm-162.15-.23c0,.68-.37,1.31-.97,1.63l-41.13,22.02c-.6,.32-.97,.95-.97,1.63v100.29c0,.68-.37,1.31-.97,1.63l-43.71,23.4c-1.23,.66-2.72-.23-2.72-1.63v-96.34c0-1.39-1.49-2.28-2.72-1.63l-37.65,20.16c-1.23,.66-2.72-.23-2.72-1.63v-49.5c0-.68,.37-1.31,.97-1.63L144.01,27.52c1.23-.66,2.72,.23,2.72,1.63v49.5Z"/></g></g></svg>