<svg width="32" height="32" viewBox="0 0 32 32" fill="none" xmlns="http://www.w3.org/2000/svg">
<rect opacity="0.01" width="32" height="32" fill="white"/>
<path fill-rule="evenodd" clip-rule="evenodd" d="M32 7.00092C30.8208 7.50805 29.5557 7.85234 28.2286 8.00588C29.5844 7.21494 30.6251 5.95874 31.112 4.46526C29.8422 5.20037 28.4386 5.73076 26.9444 6.01922C25.7461 4.77698 24.0418 4 22.1513 4C18.5278 4 15.5871 6.86599 15.5871 10.3973C15.5871 10.8998 15.6443 11.3883 15.7589 11.8536C10.3023 11.5884 5.46621 9.03875 2.22945 5.1678C1.66612 6.11227 1.34149 7.21028 1.34149 8.38274C1.34149 10.602 2.50157 12.5608 4.26317 13.7053C3.18902 13.6727 2.17694 13.3843 1.28898 12.9051C1.28898 12.933 1.28898 12.9562 1.28898 12.9841C1.28898 16.0828 3.55184 18.6696 6.55468 19.2558C6.00567 19.4001 5.42324 19.4792 4.8265 19.4792C4.40161 19.4792 3.99105 19.4373 3.59003 19.3628C4.42548 21.9032 6.85066 23.7549 9.71983 23.8061C7.47128 25.5229 4.64508 26.5464 1.56587 26.5464C1.03595 26.5464 0.51559 26.5139 0 26.458C2.90258 28.2725 6.35417 29.3333 10.0636 29.3333C22.137 29.3333 28.7394 19.5862 28.7394 11.1324C28.7394 10.8533 28.7346 10.5788 28.7203 10.3043C30.0045 9.40165 31.1168 8.27573 31.9952 6.99161L32 7.00092Z" fill="#41ABE1"/>
</svg>
